<svg xmlns="http://www.w3.org/2000/svg" viewBox="0 0 128 128">
    <path fill="#4CAF50" d="M64 12.5c-28.77 0-52.13 23.36-52.13 52.13 0 28.77 23.36 52.13 52.13 52.13 28.77 0 52.13-23.36 52.13-52.13 0-28.77-23.36-52.13-52.13-52.13zm0 8.38c24.13 0 43.75 19.62 43.75 43.75 0 24.13-19.62 43.75-43.75 43.75-24.13 0-43.75-19.62-43.75-43.75 0-24.13 19.62-43.75 43.75-43.75z"/>
    <circle fill="#4CAF50" cx="44" cy="44" r="8"/>
    <circle fill="#4CAF50" cx="84" cy="44" r="8"/>
    <circle fill="#4CAF50" cx="64" cy="84" r="8"/>
    <path fill="#4CAF50" d="M44 44l20 40 20-40"/>
</svg>