<svg xmlns="http://www.w3.org/2000/svg" viewBox="0 0 128 128">
  <path fill="#512BD4" d="M61.195 0h4.953c12.918.535 25.688 4.89 36.043 12.676 9.809 7.289 17.473 17.437 21.727 28.906 3.449 9.195 4.582 19.176 3.441 28.902-1.156 10.047-4.953 19.785-10.848 28.080-6.782 9.598-16.296 17.164-27.226 21.684-10.031 4.164-21.044 5.789-31.82 4.652-11.649-1.23-22.93-5.645-32.225-12.676C15.574 105.012 8.358 94.434 4.68 82.539 1.692 72.797.762 62.273 2.457 52.083c1.586-9.597 5.645-18.75 11.598-26.54 7.136-9.386 16.914-16.82 28.008-21.098C47.883 1.617 54.523.082 61.195 0m-1.883 14.879c-11.258.508-22.32 4.504-31.155 11.512-7.824 6.125-13.844 14.7-16.984 24.137-3.09 9.141-3.363 19.246-.801 28.559 2.422 8.824 7.508 16.93 14.371 23.09 7.836 7.098 17.828 11.808 28.305 13.296 8.382 1.195 17.098.273 24.985-2.734 8.801-3.327 16.582-9.066 22.302-16.644 6.27-8.27 9.828-18.461 10.273-28.82.469-10.523-2.352-21.191-8.134-30.043-7.05-10.84-18.34-18.898-30.859-21.602-4.02-.871-8.156-1.227-12.303-.75zM47.32 34.094c4.402-.164 8.816.081 13.218-.047 11.223-.023 22.457.035 33.68-.047 1.468.164 1.691 1.945.789 2.898-.844.738-2.02.563-3.054.61-4.309.011-8.605.011-12.902.011.012 15.75.023 31.5-.011 47.25-.059 1.242-1.282 2.219-2.511 2.066-1.407-.035-2.86.117-4.214-.199-1.152-.504-1.152-1.898-1.198-2.957-.024-15.387-.011-30.774-.011-46.149-8.133-.012-16.266.035-24.399-.023-1.339-.293-1.738-2.066-.75-2.969.445-.387.977-.457 1.363-.445z"/>
</svg>