<?xml version="1.0" encoding="utf-8"?>
<svg xmlns="http://www.w3.org/2000/svg" viewBox="0 0 128 128">
    <!-- Main circle -->
    <path fill="#2196F3" d="M64 12.5c-28.77 0-52.13 23.36-52.13 52.13 0 28.77 23.36 52.13 52.13 52.13 28.77 0 52.13-23.36 52.13-52.13 0-28.77-23.36-52.13-52.13-52.13zm0 8.38c24.13 0 43.75 19.62 43.75 43.75 0 24.13-19.62 43.75-43.75 43.75-24.13 0-43.75-19.62-43.75-43.75 0-24.13 19.62-43.75 43.75-43.75z"/>
    
    <!-- Monitor screen -->
    <rect x="30" y="35" width="68" height="40" rx="4" fill="none" stroke="#2196F3" stroke-width="4"/>
    
    <!-- Graph line -->
    <path d="M35 55l10-8 12 4 14-12 12 8 10-4" fill="none" stroke="#2196F3" stroke-width="3" stroke-linecap="round"/>
    
    <!-- Pulse dots -->
    <circle cx="45" cy="47" r="3" fill="#2196F3"/>
    <circle cx="57" cy="51" r="3" fill="#2196F3"/>
    <circle cx="71" cy="39" r="3" fill="#2196F3"/>
    <circle cx="83" cy="47" r="3" fill="#2196F3"/>
    <circle cx="93" cy="43" r="3" fill="#2196F3"/>
    
    <!-- Stand -->
    <path d="M54 75h20l-10 15z" fill="#2196F3"/>
</svg>