<svg xmlns="http://www.w3.org/2000/svg" viewBox="0 0 128 128">
  <path fill="#336791" d="M93.809 92.112c.785-6.533.55-7.492 5.416-6.433l1.235.108c3.742.17 8.637-.602 11.513-1.938 6.191-2.873 9.861-7.668 3.758-6.409-13.924 2.873-14.881-1.842-14.881-1.842 14.703-21.815 20.849-49.508 15.543-56.287-14.47-18.489-39.517-9.746-39.936-9.52l-.134.025c-2.751-.571-5.83-.912-9.289-.968-6.301-.104-11.082 1.652-14.709 4.402 0 0-44.683-18.409-42.604 23.151.442 8.841 12.672 66.898 27.26 49.362 5.332-6.412 10.484-11.834 10.484-11.834 2.558 1.699 5.622 2.567 8.834 2.255l.249-.212c-.078.796-.044 1.575.099 2.497-3.757 4.199-2.653 4.936-10.166 6.482-7.602 1.566-3.136 4.355-.221 5.084 3.535.884 11.712 2.136 17.238-5.598l-.22.882c1.474 1.18 1.375 8.477 1.583 13.69.209 5.214.558 10.079 1.621 12.948 1.063 2.868 2.317 10.256 12.191 8.14 8.252-1.764 14.561-4.309 15.136-27.985"></path>
  <path fill="#fff" d="M75.458 125.256c-4.367 0-7.211-1.689-8.938-3.32-2.607-2.46-3.641-5.629-4.259-7.522l-.267-.79c-1.244-3.358-1.666-8.193-1.916-14.419-.038-.935-.064-1.898-.093-2.919-.021-.747-.047-1.684-.085-2.664-1.553.742-3.213 1.27-4.962 1.568-3.079.526-6.389.356-9.84-.507-2.435-.609-4.965-1.871-6.407-3.82-4.203 3.681-8.212 3.182-10.396 2.453-3.853-1.285-7.301-4.896-10.542-11.037-2.309-4.375-4.542-10.075-6.638-16.943-3.65-11.96-5.969-24.557-6.175-28.693-.648-12.945 2.837-22.203 10.356-27.514 11.861-8.378 29.832-3.451 36.384-1.214 4.402-2.653 9.581-3.944 15.433-3.851 3.143.051 6.136.327 8.916.823 2.9-.912 8.628-2.221 15.185-2.139 12.081.144 22.092 4.852 28.949 13.615 4.894 6.252 2.474 19.381.597 26.651-2.642 10.226-7.271 21.102-12.957 30.57 1.544.011 3.781-.174 6.961-.831 6.274-1.295 8.109 2.069 8.607 3.575 1.995 6.042-6.677 10.608-9.382 11.864-3.466 1.609-9.117 2.589-13.745 2.377l-.202-.013-1.216-.107-.12 1.014-.116.991c-.311 11.999-2.025 19.598-5.552 24.619-3.697 5.264-8.835 6.739-13.361 7.709-1.544.33-2.947.474-4.219.474zm-9.19-43.671c2.819 2.256 3.066 6.501 3.287 14.434.028.99.054 1.927.089 2.802.106 2.65.355 8.855 1.327 11.477.137.371.26.747.39 1.146 1.083 3.316 1.626 4.979 6.309 3.978 3.931-.843 5.952-1.599 7.534-3.851 2.299-3.274 3.585-9.86 3.821-19.575l4.783.116-4.75-.57.14-1.186c.455-3.91.783-6.734 3.396-8.602 2.097-1.498 4.486-1.353 6.389-1.01-2.091-1.58-2.669-3.433-2.823-4.193l-.399-1.965 1.121-1.663c6.457-9.58 11.781-21.354 14.609-32.304 2.906-11.251 2.02-17.226 1.134-18.356-11.729-14.987-32.068-8.799-34.192-8.097l-.359.194-1.8.335-.922-.191c-2.542-.528-5.366-.82-8.393-.869-4.756-.08-8.593 1.044-11.739 3.431l-2.183 1.655-2.533-1.043c-5.412-2.213-21.308-6.662-29.696-.721-4.656 3.298-6.777 9.76-6.305 19.207.156 3.119 2.275 14.926 5.771 26.377 4.831 15.825 9.221 21.082 11.054 21.693.32.108 1.15-.537 1.976-1.529 5.37-6.459 10.479-11.844 10.694-12.07l2.77-2.915 3.349 2.225c1.35.897 2.839 1.406 4.368 1.502l7.987-6.812-1.157 11.808c-.026.265-.039.626.065 1.296l.348 2.238-1.51 1.688-.174.196 4.388 2.025 1.836-2.301z"></path>
  <path fill="#fff" d="M115.731 77.44c-13.925 2.873-14.882-1.842-14.882-1.842 14.703-21.816 20.849-49.51 15.545-56.287-14.47-18.488-39.519-9.745-39.937-9.518l-.135.024c-2.751-.571-5.83-.911-9.291-.967-6.301-.103-11.08 1.652-14.707 4.402 0 0-44.684-18.408-42.606 23.151.442 8.842 12.672 66.899 27.26 49.363 5.332-6.412 10.483-11.834 10.483-11.834 2.559 1.699 5.622 2.567 8.833 2.255l.25-.212c-.078.796-.042 1.575.1 2.497-3.758 4.199-2.654 4.936-10.167 6.482-7.602 1.566-3.136 4.355-.22 5.084 3.534.884 11.712 2.136 17.237-5.598l-.221.882c1.473 1.18 2.507 7.672 2.334 13.557-.174 5.885-.29 9.926.871 13.082 1.16 3.156 2.316 10.256 12.192 8.14 8.252-1.768 12.528-6.351 13.124-13.995.422-5.435 1.377-4.631 1.438-9.49l.767-2.3c.884-7.367.14-9.743 5.225-8.638l1.235.108c3.742.17 8.639-.602 11.514-1.938 6.19-2.871 9.861-7.667 3.758-6.408z"></path>
  <path fill="#336791" d="M75.957 122.307c-8.232 0-10.84-6.519-11.907-9.185-1.562-3.907-1.899-19.069-1.551-31.503.024-.881.754-1.577 1.64-1.55.881.024 1.575.758 1.55 1.639-.401 14.341.168 27.337 1.324 30.229 1.804 4.509 4.54 8.453 12.275 6.796 7.343-1.575 10.093-4.359 11.318-11.46.94-5.449 2.799-20.951 3.028-24.01.066-.878.828-1.539 1.71-1.472.878.066 1.537.832 1.472 1.71-.239 3.185-2.089 18.657-3.065 24.315-1.446 8.387-5.185 12.191-13.794 14.037-1.463.313-2.792.453-4 .453zM31.321 90.466c-.785 0-1.498-.145-2.116-.35-5.347-1.784-10.44-10.492-15.138-25.885-3.576-11.717-5.842-23.947-6.041-27.922-.589-11.784 2.445-20.121 9.02-24.778 13.007-9.216 34.888-.44 35.813-.062.815.333 1.207 1.265.873 2.081-.333.815-1.265 1.206-2.08.874-.211-.086-21.193-8.492-32.768-.285-5.622 3.986-8.203 11.392-7.672 22.011.167 3.349 2.284 15.285 5.906 27.149 4.194 13.742 8.967 22.413 13.096 23.79.648.216 2.62.873 5.439-2.517 5.305-6.382 10.178-11.476 10.227-11.526.61-.636 1.62-.657 2.256-.047.636.61.658 1.62.048 2.256-.048.05-4.847 5.067-10.077 11.359-2.477 2.979-4.851 3.853-6.786 3.853zM100.75 77.021c-.307 0-.617-.088-.891-.272-.73-.493-.924-1.484-.431-2.215 14.863-22.055 20.08-48.704 15.612-54.414-5.624-7.186-13.565-10.939-23.604-11.156-7.433-.16-13.341 1.738-14.307 2.069l-.243.099c-.971.305-1.716-.227-1.997-.849-.333-.736-.06-1.606.631-2.025.046-.027.192-.089.429-.176l-.021.006.021-.007c1.641-.601 7.639-2.4 15.068-2.315 11.108.118 20.284 4.401 26.534 12.388 2.957 3.779 2.964 12.485.019 23.887-3.002 11.625-8.651 24.118-15.497 34.277-.306.457-.81.703-1.323.703zM101.51 87.231c-2.538 0-4.813-.358-6.175-1.174-1.4-.839-1.667-1.979-1.702-2.584-.382-6.71 3.32-7.878 5.208-8.411-.263-.398-.637-.866-1.024-1.349-1.101-1.376-2.609-3.26-3.771-6.078-.182-.44-.752-1.463-1.412-2.648-3.579-6.418-11.026-19.773-6.242-26.612 2.214-3.165 6.623-4.411 13.119-3.716-1.911-5.822-11.011-24.034-32.604-24.388-6.494-.108-11.82 1.889-15.822 5.93-8.96 9.049-8.636 25.422-8.631 25.586.023.881-.672 1.614-1.553 1.637-.881.028-1.613-.672-1.637-1.553-.02-.727-.354-17.909 9.554-27.916 4.637-4.683 10.741-6.995 18.142-6.874 13.814.227 22.706 7.25 27.732 13.101 5.479 6.377 8.165 13.411 8.386 15.759.165 1.746-1.088 2.095-1.341 2.147l-.576.013c-6.375-1.021-10.465-.312-12.156 2.104-3.639 5.201 3.406 17.834 6.414 23.229.768 1.376 1.322 2.371 1.576 2.985.988 2.396 2.277 4.006 3.312 5.3.911 1.138 1.7 2.125 1.982 3.283.131.23 1.99 2.98 13.021.703 2.765-.57 4.423-.083 4.93 1.45.997 3.015-4.597 6.532-7.694 7.97-2.775 1.29-7.204 2.106-11.036 2.106zm-4.696-4.021c.35.353 2.101.962 5.727.806 3.224-.138 6.624-.839 8.664-1.786 2.609-1.212 4.351-2.567 5.253-3.492l-.5.092c-7.053 1.456-12.042 1.262-14.828-.577-.199-.131-.378-.267-.54-.401-.302.119-.581.197-.78.253-1.58.443-3.214.902-2.996 5.105zm-45.562-8.915c-.752 0-1.504-.041-2.239-.122-2.741-.303-5.219-.937-6.896-1.772-.577-.285-.989-.247-1.322.001-1.296.965-3.462 2.577-5.892-.075-1.649-1.795-2.047-4.824-1.181-9.006.952-4.601 3.253-9.632 6.43-14.089 6.86-9.628 15.829-14.172 24.097-12.188l.919.217c5.306 1.023 9.313 3.986 10.927 8.11.99 2.527.135 5.207-2.162 6.785-3.979 2.741-11.816 2.999-17.291 2.999L54.04 54.86c-.589 5.224-1.239 10.244-1.623 13.826-.483 4.503-1.023 9.564-1.561 14.575-.078.719-.207 1.435-.385 2.128-1.505 5.836-5.514 8.906-11.497 8.906zm-8.192-3.103c.685.341 2.406 1.064 4.926 1.339.917.101 1.898.151 2.916.151 4.99 0 7.962-2.335 9.089-7.063.149-.58.257-1.182.324-1.784.527-4.912 1.056-9.881 1.528-14.297.406-3.777 1.105-9.19 1.713-14.658.065-.583.576-1.018 1.167-1.018h.891c7.563 0 13.797-.485 16.392-2.354 1.34-.918 1.831-2.419 1.235-3.692-1.33-3.406-4.775-5.924-9.407-6.82l-.914-.216c-7.315-1.744-15.338 2.43-21.669 11.269-2.958 4.158-5.091 8.83-5.962 13.073-.718 3.472-.424 5.828.455 6.790.419.457 1.306.753 2.308.753 1.991 0 3.513-.712 3.525-.719.71-.323 1.548.002 1.866.712.319.709-.003 1.541-.712 1.86-.087.04-2.037.907-4.707.907-1.419 0-2.779-.353-3.641-1.291-1.7-1.854-2.011-5.049-1.088-9.368-1.288 3.25-1.636 5.642-.748 6.605.516.559 1.522.833 2.837.768zM81.061 42.773c-1.072 0-2.203-.413-3.255-1.185-1.276-.936-2.502-2.346-3.506-4.059-1.823-3.104-2.552-6.153-2.051-8.554.371-1.785 1.434-3.018 3.088-3.571 2.161-.722 5.426-.192 8.695 1.417 3.997 1.97 7.277 5.127 8.715 8.375.513 1.162.555 2.115.127 2.83-.497.83-1.555 1.137-2.732 1.137-.718 0-1.459-.105-2.124-.317-.734-.234-1.476-.554-2.196-.867-.903-.393-1.836-.799-2.789-1.085-1.049-.314-2.024-.476-2.973-.476-.525 0-1.033.055-1.51.164-.381.087-.73.204-1.039.347l-.797.337c-.443.187-.846.282-1.202.282-.224 0-.429-.033-.616-.098-.454-.157-.783-.553-.872-1.052-.082-.465.047-.952.344-1.293.255-.293.613-.458 1.022-.472.341-.011.666.062 1.023.231.089.042.183.083.281.123l.113-.054c.198-.092.433-.178.697-.243.382-.089.797-.134 1.235-.134.764 0 1.549.134 2.399.398.868.271 1.719.638 2.544.996.796.346 1.619.704 2.445.97.53.169 1.07.255 1.605.255.641 0 1.125-.127 1.322-.347.055-.061.062-.162.019-.299-.308-.741-.917-1.703-1.71-2.707-1.258-1.59-2.978-3.141-4.848-4.361-2.79-1.823-5.404-2.45-6.948-1.666-.638.325-1.167.977-1.483 1.829-.581 1.564-.307 3.885.761 6.373 1.764 4.115 4.542 6.789 7.449 7.189 2.353.324 4.769-.734 6.512-2.847.297-.359.901-.401 1.259-.103.358.298.4.901.103 1.259-1.758 2.127-3.977 3.373-6.333 3.549-.196.015-.392.022-.589.022z"></path>
  <path fill="#336791" d="M45.615 69.794c.073.071.167.158.263.246.095.088.193.176.284.256l-.021-.017.021.017c.091.081.185.161.28.242.188.159.374.31.546.445.205.158.399.305.577.436l.618.459c.13.095.257.185.376.271.119.085.234.169.342.247.215.154.421.3.611.435.189.134.364.256.522.366.158.109.299.207.421.291.123.084.227.154.311.211.169.114.311.21.41.276.099.066.172.114.172.114.38.249.463.766.214 1.146-.248.38-.766.464-1.146.215 0 0-.091-.059-.213-.139-.122-.08-.295-.194-.502-.331-.104-.069-.219-.144-.346-.228-.127-.084-.265-.175-.414-.272-.149-.098-.309-.205-.479-.322-.17-.117-.349-.239-.535-.367-.186-.128-.379-.262-.579-.402-.1-.07-.2-.142-.302-.215-.102-.074-.204-.148-.307-.223l-.61-.45c-.166-.122-.345-.258-.533-.405-.157-.128-.329-.27-.502-.414-.087-.072-.173-.146-.257-.219-.084-.072-.167-.145-.246-.217-.159-.144-.31-.285-.442-.417-.266-.264-.269-.695-.006-.961.265-.267.696-.27.962-.007zM51.443 33.267c-.068.069-.133.141-.197.214-.064.073-.127.147-.186.223-.119.151-.229.309-.33.471-.101.162-.193.329-.277.498-.167.338-.297.683-.387 1.023-.181.679-.241 1.334-.201 1.918.02.292.062.565.122.815.03.125.064.243.102.354.037.112.079.217.124.314.045.097.093.187.145.268.051.081.104.154.16.217.112.128.233.217.351.271.118.054.234.075.335.075.101 0 .188-.021.251-.05.063-.029.102-.066.102-.066.369-.267.889-.186 1.156.183.267.369.185.889-.183 1.156 0 0-.11.103-.289.188-.179.085-.421.165-.72.165-.298 0-.65-.059-.994-.219-.172-.08-.344-.184-.51-.316-.083-.066-.164-.139-.242-.22-.078-.081-.153-.17-.225-.266-.072-.096-.14-.198-.203-.308-.063-.11-.122-.226-.176-.349-.108-.244-.196-.514-.256-.806-.121-.583-.127-1.25-.002-1.946.062-.349.158-.704.285-1.058.127-.354.285-.707.467-1.043.091-.168.188-.332.289-.488.102-.157.208-.306.314-.444.053-.069.107-.135.161-.198.053-.063.107-.124.16-.18.106-.114.211-.211.307-.289.192-.158.475-.13.633.061.158.191.13.475-.061.633-.096.078-.201.175-.307.289z"></path>
</svg>