<svg xmlns="http://www.w3.org/2000/svg" viewBox="0 0 128 128">
    <path fill="#F89939" d="M64 12.5c-28.77 0-52.13 23.36-52.13 52.13 0 28.77 23.36 52.13 52.13 52.13 28.77 0 52.13-23.36 52.13-52.13 0-28.77-23.36-52.13-52.13-52.13zm0 8.38c24.13 0 43.75 19.62 43.75 43.75 0 24.13-19.62 43.75-43.75 43.75-24.13 0-43.75-19.62-43.75-43.75 0-24.13 19.62-43.75 43.75-43.75z"/>
    <path fill="#F89939" d="M85.5 42.5c0 5.523-4.477 10-10 10s-10-4.477-10-10 4.477-10 10-10 10 4.477 10 10"/>
    <path fill="#F89939" d="M52.5 85.5c0 5.523-4.477 10-10 10s-10-4.477-10-10 4.477-10 10-10 10 4.477 10 10"/>
</svg>