<?xml version="1.0" encoding="utf-8"?>
<!-- Generator: Adobe Illustrator 26.0.1, SVG Export Plug-In . SVG Version: 6.00 Build 0)  -->
<svg version="1.1" xmlns="http://www.w3.org/2000/svg" xmlns:xlink="http://www.w3.org/1999/xlink" x="0px" y="0px"
	 viewBox="0 0 737 80" enable-background="new 0 0 737 80" xml:space="preserve">
<g id="Logo_Red-White__x7C__Sentence_case">
</g>
<g id="visma-enterprise-logo-white">
</g>
<g id="visma-enterprise-logo-red">
	<g>
		<g>
			<path d="M326.67984,9.923642h-8.66626h-1.060211l-16.669525,60.138981h1.060211h11.378601h1.060211l7.261932-28.715485
				c0.722198-2.654324,1.036713-5.262505,1.420898-7.894165c0.467438,2.578274,0.885529,5.158298,1.666016,7.736027
				l7.172882,28.873623h1.060211h11.706482h1.060211L327.740051,9.923642H326.67984z M161.100739,9.923642h-1.060242
				l-7.253494,28.709991c-0.722473,2.652847-1.040802,5.262203-1.426117,7.893288
				c-0.465118-2.578575-0.882629-5.154552-1.660812-7.730804l-7.181564-28.872475h-13.818207l17.384171,60.138981h1.060226h8.675247
				h1.060226l16.663452-60.138981h-1.060242H161.100739z M182.472458,9.923642h-1.060211v60.138981h1.060211h10.829346h1.060242
				V9.923642h-1.060242H182.472458z M287.206696,9.923642h-14.898773h-1.060181l-4.370575,32.469482l-5.325745-32.469482h-1.060242
				h-14.579269h-1.060501l-5.263077,60.138981h1.060226h11.706467h1.060226l1.52243-37.645496l1.319916,8.847897l5.824219,28.7976
				h1.060211h8.105713h1.060181l5.107574-28.476685l1.32251-10.223522l2.569855,38.700207h1.060242h11.1427h1.060242
				l-6.304169-60.138981H287.206696z M222.325455,34.749653c-2.93924-5.076511-6.272522-10.836901-3.163528-18.330654
				c1.058182-2.56089,2.625854-5.060248,4.667679-6.495357h-1.060226h-13.155792h-1.060211c0,0-1.027145,1.935619-1.498627,3.065747
				c-4.952606,11.972851-0.281754,20.707304,4.230698,29.154219c3.756012,7.021973,7.638824,14.275204,4.345612,22.21463
				c-0.966187,2.335129-2.749466,4.388542-4.371414,5.674202h1.060196h13.262268h1.060226c0,0,0.790955-1.544472,1.133331-2.364151
				c4.79129-11.550087,2.246063-19.654621-4.164551-30.656902C223.199966,36.25671,222.751083,35.495911,222.325455,34.749653z"/>
		</g>
		<path fill="#E70641" d="M53.150467,10.04523l30.43174,46.767017L27.259003,15.206454
			C17.439388,22.078985,17.124868,34.548,28.002964,47.016716c14.219795,16.292912,42.171009,26.416908,62.42799,22.603127
			c20.265404-3.805336,25.158821-20.095348,10.937309-36.385361C90.269348,20.509277,70.797523,11.55111,53.150467,10.04523z"/>
	</g>
	<g id="Sentence_case_4_">
		<path d="M433.759766,60V15.647949h25.600586v3.775879h-21.248047v15.424316h18.943359v3.711914h-18.943359v17.664062h22.912109V60
			H433.759766z"/>
		<path d="M469.023438,28.063965c1.237305-0.34082,2.901367-0.725098,4.992188-1.151855
			c2.089844-0.42627,4.650391-0.640137,7.679688-0.640137c2.517578,0,4.618164,0.362793,6.304688,1.087891
			c1.68457,0.726074,3.02832,1.760254,4.03125,3.104004c1.001953,1.344238,1.716797,2.955078,2.144531,4.832031
			c0.425781,1.87793,0.639648,3.947266,0.639648,6.208008V60h-4.160156V42.848145c0-2.346191-0.160156-4.330078-0.479492-5.952148
			c-0.320312-1.621094-0.854492-2.943848-1.600586-3.967773c-0.74707-1.024414-1.727539-1.760254-2.943359-2.208008
			c-1.21582-0.448242-2.742188-0.672363-4.576172-0.672363c-1.962891,0-3.65918,0.106934-5.087891,0.320312
			c-1.430664,0.213867-2.358398,0.405762-2.78418,0.575684V60h-4.160156V28.063965z"/>
		<path d="M509.342773,26.912109h13.183594v3.52002h-13.183594v17.600098c0,1.87793,0.160156,3.402832,0.479492,4.575684
			c0.320312,1.174316,0.77832,2.080078,1.375977,2.720215c0.597656,0.639648,1.322266,1.066895,2.176758,1.279785
			c0.852539,0.213867,1.791992,0.320312,2.81543,0.320312c1.749023,0,3.157227-0.202148,4.224609-0.608398
			c1.06543-0.404785,1.897461-0.777832,2.495117-1.119629l1.024414,3.455566
			c-0.597656,0.384277-1.642578,0.822266-3.135742,1.312012c-1.494141,0.490234-3.115234,0.736328-4.864258,0.736328
			c-2.047852,0-3.765625-0.26709-5.152344-0.800293c-1.386719-0.532715-2.496094-1.34375-3.328125-2.431641
			c-0.831055-1.088379-1.418945-2.442383-1.759766-4.063965c-0.341797-1.621094-0.511719-3.541016-0.511719-5.760254V17.184082
			l4.160156-0.768066V26.912109z"/>
		<path d="M528.22168,43.423828c0-2.900879,0.416016-5.428711,1.248047-7.583984
			c0.832031-2.153809,1.920898-3.957031,3.264648-5.407715c1.34375-1.450195,2.879883-2.52832,4.607422-3.231934
			c1.728516-0.704102,3.509766-1.056152,5.344727-1.056152c4.052734,0,7.28418,1.322754,9.695312,3.967773
			c2.410156,2.645996,3.616211,6.720215,3.616211,12.224121c0,0.342285-0.010742,0.683105-0.032227,1.023926
			c-0.021484,0.342285-0.053711,0.662109-0.095703,0.959961h-23.232422c0.128906,4.054199,1.130859,7.167969,3.008789,9.344238
			c1.876953,2.175781,4.863281,3.26416,8.959961,3.26416c2.260742,0,4.052734-0.213379,5.375977-0.640137
			c1.321289-0.42627,2.28125-0.789062,2.879883-1.087891l0.767578,3.583984c-0.597656,0.341797-1.717773,0.746582-3.359375,1.21582
			c-1.643555,0.469238-3.574219,0.704102-5.791992,0.704102c-2.902344,0-5.375977-0.427246-7.424805-1.280273
			c-2.047852-0.853027-3.733398-2.047852-5.055664-3.583984c-1.323242-1.535645-2.283203-3.359863-2.879883-5.47168
			C528.520508,48.255859,528.22168,45.941895,528.22168,43.423828z M551.709961,40.799805
			c-0.085938-3.455566-0.895508-6.144043-2.431641-8.063965s-3.711914-2.879883-6.52832-2.879883
			c-1.494141,0-2.827148,0.298828-4,0.895996c-1.173828,0.598145-2.198242,1.397949-3.072266,2.399902
			c-0.875,1.00293-1.557617,2.166016-2.047852,3.488281c-0.491211,1.322754-0.77832,2.709961-0.863281,4.159668H551.709961z"/>
		<path d="M576.541016,26.271973c1.365234,0,2.65625,0.106934,3.87207,0.319824
			c1.216797,0.214355,2.058594,0.427246,2.52832,0.640137l-0.832031,3.583984
			c-0.341797-0.169922-1.035156-0.352051-2.080078-0.543945c-1.045898-0.191895-2.421875-0.288086-4.12793-0.288086
			c-1.791992,0-3.231445,0.12793-4.320312,0.384277c-1.087891,0.255859-1.802734,0.469727-2.143555,0.639648V60h-4.160156V28.448242
			c1.066406-0.469238,2.538086-0.949219,4.416016-1.44043C571.570312,26.518066,573.853516,26.271973,576.541016,26.271973z"/>
		<path d="M593.373047,71.839844h-4.160156V28.063965c1.237305-0.425781,2.816406-0.832031,4.736328-1.21582
			c1.919922-0.384277,4.351562-0.576172,7.295898-0.576172c2.431641,0,4.639648,0.39502,6.624023,1.184082
			c1.983398,0.790039,3.689453,1.931152,5.120117,3.423828c1.428711,1.494141,2.538086,3.307129,3.328125,5.439941
			c0.789062,2.134277,1.183594,4.543945,1.183594,7.231934c0,2.518066-0.331055,4.832031-0.992188,6.944336
			c-0.662109,2.111816-1.631836,3.925781-2.912109,5.439941c-1.279297,1.515137-2.847656,2.69873-4.704102,3.551758
			c-1.855469,0.853027-3.978516,1.280273-6.367188,1.280273c-2.176758,0-4.064453-0.310059-5.664062-0.928223
			c-1.600586-0.617676-2.763672-1.205078-3.488281-1.759766V71.839844z M593.373047,54.047852
			c0.383789,0.299316,0.864258,0.619141,1.439453,0.959961c0.576172,0.342285,1.248047,0.662109,2.016602,0.959961
			c0.767578,0.299316,1.599609,0.544434,2.496094,0.736328c0.895508,0.191895,1.833984,0.288086,2.81543,0.288086
			c2.048828,0,3.765625-0.352051,5.152344-1.056152c1.385742-0.704102,2.505859-1.664062,3.360352-2.879883
			c0.852539-1.216309,1.47168-2.64502,1.855469-4.288086c0.383789-1.64209,0.576172-3.380859,0.576172-5.216309
			c0-4.351562-1.087891-7.689941-3.263672-10.015625c-2.176758-2.325195-5.056641-3.488281-8.640625-3.488281
			c-2.047852,0-3.702148,0.096191-4.959961,0.288086c-1.258789,0.191895-2.208008,0.39502-2.847656,0.60791V54.047852z"/>
		<path d="M637.788086,26.271973c1.365234,0,2.65625,0.106934,3.87207,0.319824
			c1.216797,0.214355,2.058594,0.427246,2.52832,0.640137l-0.832031,3.583984
			c-0.341797-0.169922-1.035156-0.352051-2.080078-0.543945c-1.045898-0.191895-2.421875-0.288086-4.12793-0.288086
			c-1.791992,0-3.231445,0.12793-4.320312,0.384277c-1.087891,0.255859-1.802734,0.469727-2.143555,0.639648V60h-4.160156V28.448242
			c1.066406-0.469238,2.538086-0.949219,4.416016-1.44043C632.817383,26.518066,635.100586,26.271973,637.788086,26.271973z"/>
		<path d="M655.580078,16.928223c0,0.981934-0.298828,1.759766-0.896484,2.335938
			c-0.597656,0.575684-1.322266,0.86377-2.175781,0.86377s-1.579102-0.288086-2.175781-0.86377
			c-0.597656-0.576172-0.895508-1.354004-0.895508-2.335938c0-0.981445,0.297852-1.760254,0.895508-2.336426
			c0.59668-0.575684,1.322266-0.86377,2.175781-0.86377s1.578125,0.288086,2.175781,0.86377
			C655.28125,15.167969,655.580078,15.946777,655.580078,16.928223z M654.620117,60h-4.160156V26.912109h4.160156V60z"/>
		<path d="M672.412109,57.056152c2.388672,0,4.362305-0.394043,5.919922-1.184082c1.556641-0.789062,2.335938-2.12207,2.335938-4
			c0-0.895996-0.138672-1.664062-0.416016-2.304199c-0.27832-0.639648-0.736328-1.21582-1.375977-1.728027
			c-0.639648-0.511719-1.483398-1.001953-2.52832-1.47168c-1.045898-0.469238-2.335938-1.023926-3.87207-1.664062
			c-1.237305-0.512207-2.410156-1.03418-3.519531-1.567871c-1.110352-0.533203-2.09082-1.152344-2.944336-1.856445
			c-0.853516-0.703613-1.536133-1.545898-2.047852-2.527832c-0.511719-0.980957-0.767578-2.175781-0.767578-3.583984
			c0-2.687988,1.012695-4.86377,3.040039-6.527832c2.025391-1.664062,4.80957-2.496094,8.351562-2.496094
			c2.260742,0,4.12793,0.191895,5.600586,0.576172c1.47168,0.383789,2.505859,0.725586,3.103516,1.023926l-0.959961,3.711914
			c-0.511719-0.255859-1.375977-0.597168-2.591797-1.023926c-1.21582-0.42627-2.998047-0.640137-5.34375-0.640137
			c-0.939453,0-1.824219,0.097168-2.65625,0.289062s-1.568359,0.492188-2.208008,0.897949
			c-0.640625,0.405762-1.152344,0.918945-1.536133,1.539062s-0.576172,1.37793-0.576172,2.275879
			s0.169922,1.667969,0.511719,2.309082c0.341797,0.64209,0.842773,1.208008,1.503906,1.700195
			c0.661133,0.491699,1.472656,0.949707,2.432617,1.373535c0.959961,0.425293,2.057617,0.89209,3.295898,1.402344
			c1.280273,0.509766,2.505859,1.029785,3.679688,1.561035c1.172852,0.530762,2.208008,1.169922,3.104492,1.916016
			c0.895508,0.74707,1.621094,1.643066,2.175781,2.687988c0.553711,1.045898,0.832031,2.35791,0.832031,3.936035
			c0,2.986816-1.120117,5.248047-3.360352,6.783691c-2.239258,1.536133-5.301758,2.304199-9.183594,2.304199
			c-2.902344,0-5.120117-0.246094-6.65625-0.73584c-1.536133-0.490234-2.55957-0.864258-3.072266-1.120117l1.088867-3.775879
			c0.12793,0.085938,0.404297,0.223633,0.832031,0.415527c0.425781,0.192383,1.001953,0.40625,1.727539,0.640137
			c0.724609,0.234863,1.588867,0.437988,2.591797,0.60791C669.925781,56.971191,671.088867,57.056152,672.412109,57.056152z"/>
		<path d="M691.035156,43.423828c0-2.900879,0.416016-5.428711,1.248047-7.583984
			c0.832031-2.153809,1.920898-3.957031,3.264648-5.407715c1.34375-1.450195,2.879883-2.52832,4.607422-3.231934
			c1.728516-0.704102,3.509766-1.056152,5.344727-1.056152c4.052734,0,7.28418,1.322754,9.695312,3.967773
			c2.410156,2.645996,3.616211,6.720215,3.616211,12.224121c0,0.342285-0.010742,0.683105-0.032227,1.023926
			c-0.021484,0.342285-0.053711,0.662109-0.095703,0.959961h-23.232422c0.128906,4.054199,1.130859,7.167969,3.008789,9.344238
			c1.876953,2.175781,4.863281,3.26416,8.959961,3.26416c2.260742,0,4.052734-0.213379,5.375977-0.640137
			c1.321289-0.42627,2.28125-0.789062,2.879883-1.087891l0.767578,3.583984c-0.597656,0.341797-1.717773,0.746582-3.359375,1.21582
			c-1.643555,0.469238-3.574219,0.704102-5.791992,0.704102c-2.902344,0-5.375977-0.427246-7.424805-1.280273
			c-2.047852-0.853027-3.733398-2.047852-5.055664-3.583984c-1.323242-1.535645-2.283203-3.359863-2.879883-5.47168
			C691.333984,48.255859,691.035156,45.941895,691.035156,43.423828z M714.523438,40.799805
			c-0.085938-3.455566-0.895508-6.144043-2.431641-8.063965s-3.711914-2.879883-6.52832-2.879883
			c-1.494141,0-2.827148,0.298828-4,0.895996c-1.173828,0.598145-2.198242,1.397949-3.072266,2.399902
			c-0.875,1.00293-1.557617,2.166016-2.047852,3.488281c-0.491211,1.322754-0.77832,2.709961-0.863281,4.159668H714.523438z"/>
	</g>
	<rect x="385" width="5" height="80"/>
</g>
</svg>
